<?xml version="1.0" standalone="no"?>
<!DOCTYPE svg PUBLIC "-//W3C//DTD SVG 20010904//EN"
 "http://www.w3.org/TR/2001/REC-SVG-20010904/DTD/svg10.dtd">
<svg version="1.0" xmlns="http://www.w3.org/2000/svg"
 width="360.000000pt" height="360.000000pt" viewBox="0 0 360.000000 360.000000"
 preserveAspectRatio="xMidYMid meet">
<metadata>
Created by potrace 1.14, written by Peter Selinger 2001-2017
</metadata>
<g transform="translate(0.000000,360.000000) scale(0.100000,-0.100000)"
fill="#000000" stroke="none">
<path d="M1524 3227 c87 -281 47 -466 -116 -546 -34 -17 -88 -34 -119 -37
l-56 -6 -7 53 c-10 77 -41 168 -80 230 l-34 53 20 41 c11 22 30 54 41 70 l21
30 -26 -23 c-14 -13 -34 -40 -44 -60 -11 -20 -20 -39 -21 -40 -1 -2 -23 12
-48 32 -57 43 -135 73 -219 85 -102 15 -288 -12 -378 -54 -18 -8 -24 -13 -13
-9 88 25 194 45 270 50 278 19 460 -134 499 -417 7 -46 7 -46 -49 -97 -111
-102 -234 -150 -355 -138 -83 7 -206 66 -287 137 -56 49 -55 49 8 -14 192
-187 438 -189 635 -5 58 54 69 61 114 64 232 18 354 221 290 479 -12 50 -29
101 -37 115 -8 14 -12 17 -9 7z"/>
<path d="M1377 3118 c-81 -146 -138 -296 -136 -356 1 -26 1 -26 10 5 5 18 27
65 48 105 22 40 52 114 66 163 15 50 34 102 41 118 28 53 5 26 -29 -35z"/>
<path d="M388 2943 c7 -3 16 -2 19 1 4 3 -2 6 -13 5 -11 0 -14 -3 -6 -6z"/>
<path d="M448 2933 c7 -3 16 -2 19 1 4 3 -2 6 -13 5 -11 0 -14 -3 -6 -6z"/>
<path d="M510 2916 c19 -7 38 -11 43 -9 4 2 7 -1 7 -8 0 -7 3 -9 7 -6 3 4 12
-1 20 -11 9 -10 12 -11 7 -2 -6 12 -4 12 12 -1 21 -18 55 -33 67 -31 4 1 7 -3
7 -9 0 -5 4 -8 9 -4 5 3 12 1 16 -5 4 -6 11 -8 16 -5 5 4 9 1 9 -4 0 -6 3 -10
8 -10 4 1 10 0 15 -1 4 -1 12 -4 17 -5 6 -1 12 -4 15 -5 3 -1 11 -3 18 -4 6
-1 11 -8 9 -16 -3 -11 0 -11 12 0 10 8 16 9 16 2 0 -7 7 -9 17 -5 11 4 14 3 9
-5 -4 -7 -2 -12 3 -12 6 0 11 6 12 13 0 6 4 3 9 -8 5 -11 9 -15 9 -8 1 7 13 9
34 6 41 -7 62 -11 62 -13 0 -1 13 -3 29 -5 15 -2 47 -16 70 -30 l41 -26 -30
26 c-94 79 -386 184 -585 209 l-45 6 35 -14z"/>
<path d="M615 2728 c-7 -15 -22 -25 -45 -29 l-35 -6 37 -2 c28 -1 40 4 48 20
6 11 10 24 8 30 -2 5 -8 -1 -13 -13z"/>
<path d="M926 2730 c65 -76 58 -157 -16 -195 -42 -22 -109 -19 -150 6 -26 16
-31 17 -20 5 24 -30 67 -46 121 -46 46 0 55 4 90 39 31 31 39 46 39 75 0 45
-18 83 -57 116 l-28 25 21 -25z"/>
<path d="M2140 2705 c-63 -8 -123 -14 -133 -14 -12 -1 -7 -10 23 -37 34 -31
44 -35 71 -29 18 4 93 11 168 15 133 7 134 7 40 8 -67 2 -100 6 -108 15 -6 8
-7 17 -3 22 4 4 -3 2 -15 -4 -25 -13 -31 -24 -9 -15 8 3 17 0 22 -7 5 -9 2
-10 -9 -6 -10 3 -17 3 -17 -1 0 -5 -11 -8 -24 -8 -17 0 -22 4 -18 15 4 10 7
11 10 3 2 -8 10 -5 20 8 20 25 51 32 71 16 11 -8 13 -8 7 2 -6 11 5 17 27 13
4 0 7 4 7 9 0 6 -3 9 -7 9 -5 -1 -60 -7 -123 -14z"/>
<path d="M2280 2712 c0 -4 21 -6 48 -4 75 5 82 10 15 11 -35 0 -63 -2 -63 -7z"/>
<path d="M1288 2563 c-9 -21 -29 -72 -46 -113 l-30 -74 -93 -59 c-52 -32 -128
-84 -169 -114 -81 -61 -285 -260 -340 -333 -19 -25 10 0 65 56 138 140 318
278 487 373 l56 32 6 -38 c3 -21 10 -78 17 -126 6 -48 13 -86 15 -84 2 2 -1
63 -7 136 -7 72 -10 133 -8 136 3 2 98 7 212 11 l207 7 2 -39 c2 -54 15 92 17
189 l1 77 -188 0 -189 0 -15 -37z m53 10 c-11 -4 -11 -7 0 -13 10 -7 9 -20 -4
-69 -21 -76 -21 -73 6 -69 21 3 22 7 18 71 l-3 67 126 0 c143 0 132 8 118 -90
-6 -37 -11 -45 -29 -46 -82 -5 -79 -4 -60 -15 37 -22 12 -27 -129 -28 -116 -2
-145 1 -142 11 67 179 72 188 92 187 13 0 16 -3 7 -6z"/>
<path d="M2123 2553 c47 -52 64 -82 28 -49 -14 13 -21 14 -27 5 -5 -8 -3 -10
5 -5 8 5 14 0 18 -13 3 -11 9 -18 14 -15 14 8 10 -2 -5 -15 -11 -9 -16 -9 -22
0 -4 8 -3 9 4 5 8 -5 10 -1 5 9 -4 13 -8 14 -14 4 -4 -7 -5 -17 -3 -21 10 -16
13 -48 3 -43 -5 4 -7 10 -4 15 3 5 1 11 -4 14 -4 3 -8 -4 -7 -17 1 -14 -4 -21
-13 -19 -12 3 -12 0 -1 -12 13 -17 25 -22 16 -8 -3 5 1 9 9 9 13 0 13 -3 -1
-18 -8 -9 -14 -27 -12 -40 2 -13 -3 -24 -12 -26 -9 -3 -11 -1 -5 4 12 9 14 64
3 57 -4 -3 -8 -16 -8 -29 0 -13 -5 -27 -10 -30 -7 -4 -7 -13 0 -26 6 -11 14
-18 18 -15 4 2 8 -4 8 -15 0 -19 -1 -19 -13 -3 -12 17 -13 17 -13 0 0 -9 -4
-15 -9 -11 -6 3 -8 14 -6 25 2 12 0 18 -5 15 -9 -6 -8 -24 3 -42 4 -6 3 -14
-2 -18 -7 -4 -7 -15 0 -33 6 -15 10 -28 9 -30 -1 -2 1 -6 4 -9 6 -6 -3 47 -9
58 -3 4 2 12 9 18 9 8 16 8 20 2 4 -5 2 -13 -4 -16 -6 -4 -9 -19 -7 -35 3 -15
1 -34 -4 -41 -5 -8 -9 -9 -9 -3 0 6 -8 11 -17 11 -11 0 0 -16 32 -44 60 -53
566 -464 723 -588 61 -48 112 -91 112 -95 0 -11 -123 -150 -199 -225 -82 -81
-79 -88 -55 106 10 82 12 135 7 140 -6 6 -17 -55 -28 -161 l-18 -171 -86 -63
c-300 -219 -653 -369 -996 -422 -118 -19 -352 -21 -449 -5 -38 7 -70 10 -73 8
-8 -9 124 -28 233 -34 427 -24 962 162 1362 474 194 152 383 374 447 526 10
24 12 36 4 32 -8 -5 -9 0 -4 16 3 13 -14 -13 -39 -59 -77 -141 -61 -150 -161
86 -49 114 -112 257 -141 318 l-52 112 -278 238 c-338 288 -330 281 -271 217z
m-18 -261 c-3 -3 -11 0 -18 7 -9 10 -8 11 6 5 10 -3 15 -9 12 -12z m822 -837
c0 -8 -4 -12 -9 -9 -5 3 -6 10 -3 15 9 13 12 11 12 -6z"/>
<path d="M1835 2081 c-3 -5 -56 -49 -117 -97 -116 -90 -194 -142 -170 -112 10
12 10 17 -1 27 -14 11 -27 5 -27 -13 0 -6 4 -5 9 3 5 8 11 9 15 3 3 -5 -1 -13
-9 -16 -18 -6 -30 16 -20 36 4 7 -1 4 -11 -7 -16 -20 -16 -20 -11 3 3 12 1 20
-3 17 -5 -3 -11 1 -14 7 -3 7 -3 2 0 -12 4 -21 3 -22 -6 -7 -6 9 -17 14 -23
11 -7 -4 8 15 33 41 31 33 -4 9 -112 -76 -86 -68 -156 -128 -154 -134 1 -5 13
-12 27 -16 22 -6 21 -7 -8 -8 -36 -1 -36 -11 0 -66 20 -29 20 -29 -17 5 -31
29 -38 32 -46 20 -5 -8 -10 -22 -11 -30 -1 -8 -4 0 -8 18 l-6 33 -203 -163
-202 -163 47 -42 c27 -24 53 -43 58 -42 6 0 46 29 90 64 44 36 82 61 86 57 3
-4 20 -128 38 -277 18 -148 36 -295 40 -325 8 -50 9 -51 9 -15 1 22 -14 175
-33 340 -26 233 -31 303 -22 312 7 6 99 79 206 161 127 99 199 148 209 145 11
-5 13 -3 7 7 -6 9 -4 11 4 5 9 -5 3 -17 -21 -43 -42 -45 -42 -46 194 137 126
97 202 150 210 145 7 -4 72 -53 143 -109 202 -157 261 -200 244 -179 -26 31
-29 41 -14 41 8 0 12 -4 9 -8 -2 -4 0 -10 5 -13 5 -4 8 1 7 10 -2 14 -392 333
-408 334 -4 0 -9 -4 -13 -9z"/>
<path d="M1539 2023 c-13 -16 -12 -17 4 -4 9 7 17 15 17 17 0 8 -8 3 -21 -13z"/>
<path d="M866 1725 c-9 -26 -7 -32 5 -12 6 10 9 21 6 23 -2 3 -7 -2 -11 -11z"/>
<path d="M840 1663 c-44 -95 -110 -257 -106 -260 2 -3 9 4 15 14 19 37 111
266 108 270 -2 2 -10 -9 -17 -24z"/>
<path d="M1470 1538 c0 -13 9 -165 20 -338 11 -173 20 -332 20 -352 0 -21 4
-38 9 -38 6 0 7 143 5 355 l-5 356 158 -3 158 -3 3 -165 c1 -96 7 -169 13
-175 7 -7 8 -4 3 9 -5 13 -4 17 4 12 9 -5 12 35 12 158 l0 166 160 0 160 0 -5
-172 c-4 -113 -2 -166 4 -153 8 16 10 12 12 -25 2 -59 15 64 24 253 l8 137
-382 0 -381 0 0 -22z"/>
<path d="M586 1490 c-117 -129 -158 -375 -93 -554 28 -75 79 -156 129 -201 23
-22 21 -17 -10 19 -90 105 -128 226 -120 387 6 113 30 200 74 271 14 22 23 42
21 45 -3 2 -17 -15 -31 -39 -14 -24 -26 -38 -26 -33 0 18 51 86 60 80 11 -7
43 40 38 56 -2 6 -21 -8 -42 -31z"/>
<path d="M1535 1160 c7 -11 289 -10 300 2 3 3 -65 6 -151 7 -110 1 -154 -1
-149 -9z"/>
<path d="M1874 1162 c10 -9 296 -10 296 0 0 4 -68 7 -151 7 -84 0 -149 -3
-145 -7z"/>
<path d="M2617 983 c-10 -17 -19 -118 -9 -108 5 6 12 34 15 63 6 49 4 62 -6
45z"/>
<path d="M2597 823 c-4 -3 -6 -25 -6 -47 l2 -41 7 45 c8 48 7 54 -3 43z"/>
<path d="M1112 735 c0 -16 2 -22 5 -12 2 9 2 23 0 30 -3 6 -5 -1 -5 -18z"/>
<path d="M988 633 c7 -3 16 -2 19 1 4 3 -2 6 -13 5 -11 0 -14 -3 -6 -6z"/>
</g>
</svg>
