<?xml version="1.0" standalone="no"?>
<!DOCTYPE svg PUBLIC "-//W3C//DTD SVG 20010904//EN"
 "http://www.w3.org/TR/2001/REC-SVG-20010904/DTD/svg10.dtd">
<svg version="1.0" xmlns="http://www.w3.org/2000/svg"
 width="425.000000pt" height="425.000000pt" viewBox="0 0 425.000000 425.000000"
 preserveAspectRatio="xMidYMid meet">
<metadata>
Created by potrace 1.14, written by Peter Selinger 2001-2017
</metadata>
<g transform="translate(0.000000,425.000000) scale(0.100000,-0.100000)"
fill="#000000" stroke="none">
<path d="M2067 3825 c-15 -8 -46 -34 -69 -57 -60 -63 -498 -515 -603 -623 -49
-51 -178 -183 -285 -295 -189 -196 -246 -255 -491 -507 -123 -126 -138 -154
-118 -213 19 -52 55 -63 209 -64 l135 -1 1 -675 c1 -371 4 -690 7 -708 6 -35
37 -69 71 -78 12 -2 555 -3 1208 -2 l1188 3 27 28 28 27 3 643 c1 353 2 669 2
703 l0 61 133 1 c73 0 144 5 159 11 48 18 72 90 45 138 -9 16 -208 227 -393
418 -9 8 -12 143 -12 484 0 339 -4 481 -12 501 -23 56 -48 60 -379 60 -331 0
-357 -4 -384 -57 -8 -15 -15 -53 -15 -83 0 -30 -1 -60 -1 -66 -1 -11 -94 81
-257 254 -106 112 -138 128 -197 97z m374 -572 c137 -139 141 -143 182 -143
43 1 76 20 94 55 5 11 9 85 9 165 l-1 145 187 0 c103 0 189 -3 192 -6 3 -3 6
-206 6 -451 1 -445 1 -446 23 -475 12 -15 75 -82 139 -148 l117 -120 -81 -5
c-72 -5 -83 -9 -104 -33 -13 -16 -25 -38 -25 -50 -1 -12 -3 -323 -4 -692 -2
-368 -3 -675 -4 -682 -1 -8 -43 -12 -151 -12 -135 0 -150 2 -151 17 -3 40 -8
76 -14 91 -4 9 -9 27 -11 40 -3 13 -22 58 -42 100 -55 114 -177 234 -294 291
-51 24 -122 48 -169 58 l-81 16 4 53 c6 66 18 82 50 61 35 -23 151 -67 194
-74 80 -13 237 -7 278 11 59 25 149 121 189 201 54 109 106 280 123 409 3 28
8 52 9 55 5 8 19 169 18 202 0 15 -10 40 -21 56 -29 40 -92 51 -262 47 -336
-8 -524 -130 -615 -400 -22 -65 -23 -161 -2 -202 37 -70 138 -96 245 -63 31 9
102 36 157 58 55 22 114 43 130 45 46 8 61 16 73 40 20 43 22 60 12 93 -29 88
-132 83 -374 -21 -21 -9 -40 -14 -43 -11 -11 10 52 129 84 156 71 63 172 98
312 107 l93 6 -7 -59 c-27 -232 -111 -474 -180 -520 -55 -36 -189 -20 -311 37
-93 44 -166 54 -210 31 -18 -9 -22 -5 -42 38 -12 27 -39 67 -60 88 -68 72
-137 83 -241 37 -129 -57 -252 -52 -316 13 -66 65 -164 296 -168 395 l-2 42
85 12 c47 6 135 10 195 9 135 -4 209 -28 256 -84 31 -37 62 -109 50 -116 -3
-2 -24 4 -46 14 -83 36 -141 59 -162 65 -21 6 -35 8 -98 19 -61 11 -124 -60
-109 -122 10 -42 33 -61 93 -78 31 -9 100 -33 153 -55 90 -36 193 -65 228 -64
105 5 162 64 162 169 0 68 -28 165 -69 236 -116 202 -387 268 -778 190 -157
-31 -180 -48 -180 -128 0 -152 95 -447 184 -572 34 -48 111 -121 147 -141 101
-56 303 -58 426 -5 21 9 41 16 45 16 14 0 63 -115 84 -200 25 -97 22 -103 -56
-114 -108 -14 -256 -95 -347 -190 -79 -81 -161 -234 -174 -323 -2 -16 -5 -39
-7 -53 l-4 -25 -201 -2 -202 -3 0 696 c0 830 12 760 -138 773 l-73 6 103 106
c57 59 191 198 298 309 107 110 239 247 293 303 54 56 207 214 340 350 l241
249 94 -99 c52 -54 157 -162 233 -240z"/>
</g>
</svg>
